%
M48
M72
T01C0.0150
T02C0.0315
T03C0.0400
T04C0.1180
%
T01
X2930Y4930
X3055Y5430
X3430Y4930
X3555Y5430
X3930Y4930
X4055Y5430
X4430Y4930
X4555Y5430
X4930Y4930
X5055Y5430
X5430Y4930
X5555Y5430
X5930Y4930
X6055Y5430
X6430Y4930
X6555Y5430
X6930Y4930
X6930Y4430
X6930Y3930
X7430Y3930
X7430Y2930
X6930Y2930
X7930Y2930
X8430Y2930
X8930Y2930
X9430Y2930
X9430Y3430
X9930Y3430
X9930Y3930
X9930Y4430
X9930Y4930
X9930Y5430
X9930Y5930
X9430Y7180
X9930Y8180
X9430Y8680
X9930Y9680
X9430Y10180
X9930Y11180
X9430Y11680
X8680Y10180
X8180Y10680
X7680Y10180
X8180Y9430
X8680Y8680
X8180Y8180
X7680Y8680
X6930Y8680
X6430Y8180
X6930Y7180
X8180Y7180
X8680Y5930
X8680Y5430
X8680Y4930
X8680Y4430
X10930Y2930
X11430Y2930
X11430Y3430
X6930Y10180
X6430Y9680
X6430Y11180
X6930Y11680
X7030Y12830
X7480Y12830
X8080Y13430
X8930Y13930
X8930Y14430
X9680Y16280
X10680Y16280
X10180Y14530
X10180Y14180
X10180Y13780
X11430Y13930
X11430Y14430
X11680Y19680
X11680Y20180
X10555Y20180
X10555Y19680
X9305Y19680
X9305Y20180
X7805Y19305
X6680Y16680
X6180Y16680
X5830Y14930
X6230Y14430
X6230Y13430
X4430Y11980
X4430Y11480
X3680Y13180
X4430Y9680
X4430Y9180
X4930Y7780
X2555Y5430
X8180Y11680
X2930Y20680
X2930Y21180
X3430Y21180
T02
X3180Y11930
X3180Y11339
X3180Y10749
X3180Y10158
X3180Y9568
X3184Y8977
T03
X7930Y20930
X8930Y20930
X9930Y20930
X10930Y20930
T04
X3430Y18967
X5280Y17786
X5280Y20149
M30
